<svg xmlns="http://www.w3.org/2000/svg" width="1000" height="560" viewBox="0 0 1000 560" role="img" aria-labelledby="title desc">
  <title id="title">Select the Azure ML workshop kernels</title>
  <desc id="desc">The setup notebook runs in Python 3.10 SDK v2 and creates Foundry Workshop and Foundry Hosted Agent kernels.</desc>
  <rect width="1000" height="560" rx="20" fill="#f4f7fb"/>
  <rect x="34" y="30" width="932" height="500" rx="14" fill="#fff" stroke="#cbd5e1" stroke-width="2"/>
  <rect x="34" y="30" width="932" height="62" rx="14" fill="#f8fafc" stroke="#cbd5e1"/>
  <text x="66" y="68" fill="#1e1e1e" font-family="Segoe UI, sans-serif" font-size="21" font-weight="600">00-azureml-setup.ipynb</text>
  <rect x="650" y="43" width="270" height="38" rx="6" fill="#fff" stroke="#64748b"/>
  <text x="670" y="68" fill="#1e1e1e" font-family="Segoe UI, sans-serif" font-size="15">Python (Foundry Hosted Agent) ▾</text>
  <rect x="560" y="92" width="360" height="220" rx="9" fill="#fff" stroke="#94a3b8" stroke-width="2"/>
  <g font-family="Segoe UI, sans-serif" font-size="16">
    <text x="588" y="128" fill="#605e5c" font-weight="600">Available kernels</text>
    <rect x="576" y="146" width="328" height="46" rx="5" fill="#f8fafc"/>
    <text x="594" y="175" fill="#1e1e1e">Python 3.10 - SDK v2</text>
    <rect x="576" y="198" width="328" height="46" rx="5" fill="#eef6ff"/>
    <text x="594" y="227" fill="#005a9e">Python (Foundry Workshop)</text>
    <rect x="576" y="250" width="328" height="46" rx="5" fill="#dff6dd" stroke="#107c10"/>
    <text x="594" y="279" fill="#107c10" font-weight="700">Python (Foundry Hosted Agent)</text>
  </g>
  <rect x="76" y="130" width="430" height="326" rx="10" fill="#111827"/>
  <g fill="#d1d5db" font-family="Cascadia Mono, monospace" font-size="15">
    <text x="102" y="172">Run with: Python 3.10 - SDK v2</text>
    <text x="102" y="216" fill="#86efac">✓ foundry-workshop environment</text>
    <text x="102" y="250" fill="#86efac">✓ foundry-hosted-agent environment</text>
    <text x="102" y="284" fill="#86efac">✓ Graphviz</text>
    <text x="102" y="318" fill="#86efac">✓ 2 Jupyter kernels registered</text>
    <text x="102" y="374">Labs 7–8:</text>
    <text x="102" y="408" fill="#93c5fd">Python (Foundry Hosted Agent)</text>
  </g>
  <text x="560" y="380" fill="#605e5c" font-family="Segoe UI, sans-serif" font-size="15">Refresh the page after setup, then select the Hosted Agent kernel.</text>
</svg>
